<svg width="959" height="456" viewBox="0 0 959 456" fill="none" xmlns="http://www.w3.org/2000/svg">
<path fill-rule="evenodd" clip-rule="evenodd" d="M712.258 0.605573C712.175 4.62982 722.525 31.0826 729.221 43.9523C739.877 64.4365 748.996 76.3924 769.432 96.6764C788.527 115.629 804.169 126.765 867.988 166.831C907.221 191.46 928.712 210.726 939.967 231.356C948.421 246.852 946.205 238.439 936.168 216.936C915.782 173.258 886.065 144.314 814.859 98.7772C768.304 69.0052 747.661 52.4535 734.038 33.9762C730.654 29.3866 727.283 25.162 726.545 24.5883C725.808 24.0146 722.303 17.9125 718.755 11.0281C715.206 4.14374 712.283 -0.546 712.258 0.605573ZM559.014 53.7949C599.607 111 657.573 146.651 743.507 167.258C757.405 170.592 803.005 180.747 812.351 182.592C860.058 192.005 901.262 209.708 925.813 231.339C942.565 246.099 931.877 232.714 909.39 210.77C864.562 167.022 828.857 150.237 726.818 124.936C640.392 103.507 620.041 96.257 590.916 76.5218C578.219 67.9183 578.582 68.2167 562.034 52.7518L550.871 42.3209L559.014 53.7949ZM413.461 175.851C473.67 219.663 536.904 239.465 616.596 239.465C635.182 239.465 658.902 238.501 669.306 237.323C699.37 233.916 741.192 228.871 757.068 226.739C765.099 225.661 789.038 224.213 810.265 223.525L848.86 222.271L868.357 225.686C879.082 227.566 896.45 232.326 906.951 236.265C929.461 244.708 925.783 241.049 895.801 225.173C864.087 208.377 839.192 200.172 795.662 192.163L777.929 188.9L732.033 188.863C689.815 188.827 674.997 189.766 621.466 195.87C566.514 202.137 500.227 202.01 476.077 195.595C444.061 187.087 413.327 175.065 406.729 168.466C405.619 167.356 403.773 166.449 402.625 166.449C401.478 166.449 406.353 170.68 413.461 175.851ZM461.873 369.966V452.485L471.782 451.849L481.691 451.213L480.872 394.364C480.406 362.085 480.851 337.516 481.9 337.516C482.918 337.516 510.276 364.031 542.7 396.436L601.647 455.358V372.445V289.534H592.259H582.871V347.947C582.871 380.074 582.074 406.36 581.102 406.36C580.128 406.36 571.036 397.675 560.9 387.063C529.987 354.695 463.748 287.447 462.782 287.447C462.282 287.447 461.873 324.581 461.873 369.966ZM2.17195 299.067C0.473793 311.459 0.446673 441.239 2.14065 447.562L3.39862 452.256H13.5875H23.7744V422.279V392.303L45.6063 391.333L67.4382 390.361L77.3872 384.211C82.8571 380.827 90.1671 373.865 93.6281 368.74L99.92 359.421L99.8992 339.602L99.8804 319.783L93.9035 310.944C89.8104 304.89 84.2278 300.286 76.1897 296.341L64.4549 290.577L33.9862 289.909L3.51962 289.241L2.17195 299.067ZM167.884 294.369C142.914 307.141 136.898 337.234 155.321 357.22L163.521 366.117L181.79 373.713C191.837 377.89 203.117 383.18 206.856 385.471C214.973 390.44 221.943 401.144 221.953 408.659C221.964 416.225 213.869 427.547 205.231 432.047L197.971 435.829L184.16 434.953L170.347 434.077L157.526 427.668L144.704 421.261L140.628 429.254L136.551 437.244L139.099 439.18C147.946 445.901 175.847 454.342 189.221 454.342C193.679 454.342 202.531 452.829 208.888 450.981L220.447 447.62L229.341 438.727L238.234 429.836L240.906 417.892L243.579 405.949L241.042 396.465C236.523 379.569 225.75 369.123 204.79 361.317C187.79 354.983 173.811 347.346 169.734 342.164C160.713 330.696 167.058 313.468 182.114 308.543C192.772 305.057 201.244 305.701 217.635 311.247L232.484 316.27L235.718 310.016C237.498 306.576 238.466 302.491 237.869 300.937C235.977 296.007 210.392 289.529 193.058 289.592L177.109 289.65L167.884 294.369ZM284.687 305.597C289.521 314.547 294.142 322.808 294.955 323.956C295.769 325.103 300.444 333.552 305.346 342.731C310.249 351.91 318.016 365.771 322.608 373.534C335.012 394.502 336.508 400.295 336.61 427.743L336.702 452.256H347.133H357.564V423.944V395.631L377.126 360.837C387.884 341.698 401.417 317.828 407.202 307.788L417.719 289.534L404.851 289.567L391.986 289.602L378.442 315.123C370.992 329.161 361.137 347.922 356.539 356.813C351.941 365.704 347.571 372.981 346.824 372.981C346.079 372.981 342.439 367.114 338.736 359.942C331.451 345.84 316.447 317.73 307.276 301.008L301.558 290.577L288.728 289.951L275.898 289.327L284.687 305.597ZM660.091 346.382C660.127 408.621 660.957 414.496 671.922 430.05C679.845 441.295 693.099 449.444 708.82 452.74L720.495 455.189L733.481 452.508C740.622 451.033 749.29 448.365 752.741 446.579C761.684 441.956 772.507 430.205 777.062 420.177L780.967 411.575L781.013 350.554L781.059 289.534H771.763H762.467L761.853 348.627L761.24 407.718L755.501 416.386C747.991 427.729 736.585 433.48 721.602 433.48C703.217 433.48 690.652 425.607 684.13 410.002L680.922 402.321V345.927V289.534H670.491H660.06L660.091 346.382ZM829.041 290.474C829.041 290.992 839.837 308.205 853.032 328.727C866.227 349.248 877.023 367.196 877.023 368.61C877.023 370.027 865.353 389.426 851.09 411.719L825.156 452.256H837.431H849.709L853.088 447.562C854.947 444.979 863.075 431.603 871.148 417.834C879.222 404.065 887.033 391.523 888.507 389.964L891.186 387.129L902.977 405.219C909.461 415.166 918.941 429.819 924.044 437.782L933.323 452.256H945.852C952.745 452.256 958.384 451.861 958.384 451.38C958.384 450.9 946.687 432.462 932.388 410.409L906.392 370.315L908.71 365.911C909.985 363.489 915.58 354.57 921.146 346.092C926.71 337.616 931.264 330.289 931.264 329.811C931.264 329.334 934.844 323.595 939.22 317.061C943.597 310.527 949.307 301.661 951.909 297.357L956.638 289.534H944.4H932.163L928.268 296.314C908.189 331.261 896.5 349.983 894.756 349.991C893.608 349.997 883.893 336.398 873.166 319.769L853.662 289.534H841.351C834.582 289.534 829.041 289.957 829.041 290.474ZM23.7744 341.949V373.504L41.146 372.593L58.5176 371.681L66.2303 366.914C75.9581 360.902 80.8252 351.71 80.869 339.274L80.9045 329.557L75.8476 322.176C68.9381 312.096 64.1211 310.395 42.452 310.395H23.7744V341.949Z" fill="#A50068"/>
</svg>
