<svg width="543" height="242" viewBox="0 0 543 242" fill="none" xmlns="http://www.w3.org/2000/svg">
<path fill-rule="evenodd" clip-rule="evenodd" d="M309.999 1.01378C309.916 5.03802 320.265 31.4908 326.962 44.3605C337.618 64.8447 346.737 76.8006 367.173 97.0846C386.268 116.038 401.91 127.174 465.729 167.239C504.961 191.868 526.453 211.134 537.708 231.764C546.161 247.261 543.946 238.847 533.909 217.345C513.523 173.666 483.805 144.723 412.6 99.1854C366.044 69.4134 345.402 52.8617 331.779 34.3844C328.395 29.7948 325.024 25.5702 324.285 24.9965C323.549 24.4228 320.044 18.3208 316.496 11.4363C312.947 4.55195 310.024 -0.137796 309.999 1.01378ZM156.754 54.2031C197.347 111.408 255.314 147.059 341.248 167.666C355.146 171 400.746 181.156 410.092 183C457.799 192.413 499.003 210.116 523.553 231.748C540.305 246.507 529.618 233.122 507.131 211.178C462.303 167.431 426.598 150.645 324.559 125.344C238.132 103.915 217.782 96.6652 188.656 76.93C175.96 68.3265 176.323 68.6249 159.775 53.16L148.612 42.7291L156.754 54.2031ZM11.2015 176.259C71.4108 220.071 134.645 239.873 214.337 239.873C232.923 239.873 256.643 238.91 267.047 237.731C297.111 234.324 338.932 229.28 354.808 227.148C362.84 226.069 386.779 224.621 408.006 223.933L446.6 222.679L466.098 226.094C476.823 227.974 494.19 232.734 504.692 236.673C527.202 245.116 523.524 241.457 493.542 225.581C461.827 208.785 436.933 200.58 393.403 192.571L375.67 189.308L329.774 189.271C287.556 189.235 272.738 190.174 219.206 196.278C164.254 202.545 97.9679 202.418 73.8182 196.003C41.8016 187.496 11.0679 175.473 4.46935 168.874C3.3595 167.764 1.51326 166.857 0.365862 166.857C-0.781538 166.857 4.09387 171.088 11.2015 176.259Z" fill="#A50068"/>
</svg>
